<svg width="50" height="50" viewBox="0 0 50 50" fill="none" xmlns="http://www.w3.org/2000/svg">
<g id="gg:profile">
<g id="Group">
<path id="Vector" fill-rule="evenodd" clip-rule="evenodd" d="M33.3332 18.7501C33.3332 20.9602 32.4552 23.0798 30.8924 24.6426C29.3296 26.2054 27.21 27.0834 24.9998 27.0834C22.7897 27.0834 20.6701 26.2054 19.1073 24.6426C17.5445 23.0798 16.6665 20.9602 16.6665 18.7501C16.6665 16.5399 17.5445 14.4203 19.1073 12.8575C20.6701 11.2947 22.7897 10.4167 24.9998 10.4167C27.21 10.4167 29.3296 11.2947 30.8924 12.8575C32.4552 14.4203 33.3332 16.5399 33.3332 18.7501ZM29.1665 18.7501C29.1665 19.8552 28.7275 20.915 27.9461 21.6964C27.1647 22.4778 26.1049 22.9167 24.9998 22.9167C23.8948 22.9167 22.835 22.4778 22.0536 21.6964C21.2722 20.915 20.8332 19.8552 20.8332 18.7501C20.8332 17.645 21.2722 16.5852 22.0536 15.8038C22.835 15.0224 23.8948 14.5834 24.9998 14.5834C26.1049 14.5834 27.1647 15.0224 27.9461 15.8038C28.7275 16.5852 29.1665 17.645 29.1665 18.7501Z" fill="#794BFF"/>
<path id="Vector_2" fill-rule="evenodd" clip-rule="evenodd" d="M24.9999 2.08337C12.3437 2.08337 2.08325 12.3438 2.08325 25C2.08325 37.6563 12.3437 47.9167 24.9999 47.9167C37.6562 47.9167 47.9166 37.6563 47.9166 25C47.9166 12.3438 37.6562 2.08337 24.9999 2.08337ZM6.24992 25C6.24992 29.3542 7.73533 33.3625 10.2249 36.5459C11.9733 34.2498 14.2289 32.3891 16.8154 31.109C19.4019 29.829 22.2494 29.1642 25.1353 29.1667C27.9839 29.164 30.7956 29.8115 33.356 31.06C35.9165 32.3085 38.1582 34.1249 39.9103 36.3709C41.7154 34.0034 42.9308 31.2401 43.4559 28.3096C43.9811 25.3791 43.8008 22.3657 42.9301 19.5188C42.0594 16.6718 40.5233 14.0731 38.4488 11.9376C36.3744 9.80218 33.8213 8.19141 31.0007 7.2386C28.1802 6.28579 25.1732 6.01831 22.2288 6.45832C19.2843 6.89832 16.487 8.03315 14.0682 9.7689C11.6494 11.5047 9.67869 13.7914 8.31915 16.44C6.9596 19.0886 6.25029 22.0229 6.24992 25ZM24.9999 43.75C20.6956 43.7565 16.5213 42.2758 13.1833 39.5584C14.5269 37.6349 16.3152 36.0645 18.3962 34.9806C20.4771 33.8968 22.7891 33.3317 25.1353 33.3334C27.4523 33.3315 29.7363 33.8825 31.7977 34.9405C33.859 35.9985 35.6382 37.5331 36.9874 39.4167C33.6235 42.2223 29.3803 43.7562 24.9999 43.75Z" fill="#794BFF"/>
</g>
</g>
</svg>
